<svg width="26" height="26" viewBox="0 0 26 26" fill="none" xmlns="http://www.w3.org/2000/svg">
<g clip-path="url(#clip0_0_2305)">
<path d="M20.5833 -5.66699H5.41663C4.55467 -5.66699 3.72802 -5.32458 3.11853 -4.71509C2.50904 -4.1056 2.16663 -3.27895 2.16663 -2.41699V8.41634C2.16663 9.2783 2.50904 10.1049 3.11853 10.7144C3.72802 11.3239 4.55467 11.6663 5.41663 11.6663H20.5833C21.4452 11.6663 22.2719 11.3239 22.8814 10.7144C23.4909 10.1049 23.8333 9.2783 23.8333 8.41634V-2.41699C23.8333 -3.27895 23.4909 -4.1056 22.8814 -4.71509C22.2719 -5.32458 21.4452 -5.66699 20.5833 -5.66699ZM20.5833 -3.50033L13.5416 1.34218C13.3769 1.43726 13.1901 1.48731 13 1.48731C12.8098 1.48731 12.623 1.43726 12.4583 1.34218L5.41663 -3.50033H20.5833Z" fill="#222222"/>
</g>
<defs>
<clipPath id="clip0_0_2305">
<rect width="26" height="26" fill="white"/>
</clipPath>
</defs>
</svg>
