<svg width="19" height="20" viewBox="0 0 19 20" fill="none" xmlns="http://www.w3.org/2000/svg">
<path fill-rule="evenodd" clip-rule="evenodd" d="M9.50008 2.17698C7.69661 2.17698 6.23461 3.63899 6.23461 5.44246C6.23461 7.24593 7.69661 8.70793 9.50008 8.70793C11.3036 8.70793 12.7656 7.24593 12.7656 5.44246C12.7656 3.63899 11.3036 2.17698 9.50008 2.17698ZM4.05763 5.44246C4.05763 2.43667 6.4943 0 9.50008 0C12.5059 0 14.9425 2.43667 14.9425 5.44246C14.9425 8.44824 12.5059 10.8849 9.50008 10.8849C6.4943 10.8849 4.05763 8.44824 4.05763 5.44246Z" fill="#565559"/>
<path fill-rule="evenodd" clip-rule="evenodd" d="M3.65602 14.3877C5.357 13.4088 7.41067 12.893 9.5 12.893C11.5893 12.893 13.643 13.4088 15.344 14.3877C17.0443 15.3662 18.3372 16.7792 18.9363 18.4559C19.1385 19.022 18.8435 19.6449 18.2774 19.8472C17.7113 20.0494 17.0884 19.7545 16.8862 19.1883C16.4929 18.0877 15.5994 17.0464 14.2581 16.2745C12.9175 15.503 11.2445 15.07 9.5 15.07C7.75552 15.07 6.08248 15.503 4.74188 16.2745C3.40066 17.0464 2.50706 18.0877 2.11383 19.1883C1.91157 19.7545 1.28869 20.0494 0.722577 19.8472C0.156464 19.6449 -0.138503 19.022 0.06375 18.4559C0.662783 16.7792 1.95567 15.3662 3.65602 14.3877Z" fill="#565559"/>
</svg>
