<svg width="19" height="19" viewBox="0 0 19 19" fill="none" xmlns="http://www.w3.org/2000/svg">
<path d="M9.5 0.75C10.5609 0.75 11.5783 1.17143 12.3284 1.92157C13.0786 2.67172 13.5 3.68913 13.5 4.75C13.5 5.81087 13.0786 6.82828 12.3284 7.57843C11.5783 8.32857 10.5609 8.75 9.5 8.75C8.43913 8.75 7.42172 8.32857 6.67157 7.57843C5.92143 6.82828 5.5 5.81087 5.5 4.75C5.5 3.68913 5.92143 2.67172 6.67157 1.92157C7.42172 1.17143 8.43913 0.75 9.5 0.75ZM9.5 12.625C12.0333 12.625 14.2886 13.1396 15.8829 13.9367C17.5218 14.7561 18.25 15.7498 18.25 16.625V18.25H0.75V16.625C0.75 15.7498 1.47822 14.7561 3.11713 13.9367C4.71138 13.1396 6.96672 12.625 9.5 12.625Z" stroke="black" stroke-width="1.5"/>
</svg>
