<svg width="84" height="54" viewBox="0 0 84 54" fill="none" xmlns="http://www.w3.org/2000/svg">
<path fill-rule="evenodd" clip-rule="evenodd" d="M6.77416 11.9643L41.6103 9.3335L77.5107 11.9643C78.3467 12.0228 78.9933 12.7045 78.9739 13.5038L78.708 26.735C78.6891 27.495 78.0996 28.1183 77.3018 28.2159L41.8385 32.3079L6.43228 28.2159C5.61506 28.1188 5.00674 27.4559 5.02608 26.6764L5.31139 13.4453C5.32977 12.6658 5.95694 12.0228 6.77416 11.9643Z" fill="white"/>
<path fill-rule="evenodd" clip-rule="evenodd" d="M77.3416 14.464L77.5385 23.6921C77.4989 22.6328 77.0856 16.1977 72.3016 15.7742C67.0843 15.312 58.2051 14.4836 58.2051 14.4836L58.1265 15.6394L56 12.9229L77.3416 14.464Z" fill="black"/>
<path fill-rule="evenodd" clip-rule="evenodd" d="M6.67074 14.464L6.46155 23.6921C6.4998 22.6328 6.89929 16.1977 11.5431 15.7742C16.5863 15.312 25.1505 14.4836 25.1505 14.4836L25.2459 15.6394L27.2821 12.9229L6.67074 14.464Z" fill="black"/>
<path fill-rule="evenodd" clip-rule="evenodd" d="M42.0095 0C52.1093 0 60.3077 8.1979 60.3077 18.3171C60.3077 28.4175 52.1098 36.6154 42.0095 36.6154C31.8902 36.6154 23.6923 28.4175 23.6923 18.3171C23.6923 8.1979 31.8902 0 42.0095 0Z" fill="black"/>
<path fill-rule="evenodd" clip-rule="evenodd" d="M41.6505 2.15381C51.5616 2.15381 59.5898 10.2009 59.5898 20.112C59.5898 30.0235 51.5616 38.0512 41.6505 38.0512C31.7394 38.0512 23.6923 30.0235 23.6923 20.112C23.6923 10.2004 31.7394 2.15381 41.6505 2.15381Z" fill="white"/>
<path fill-rule="evenodd" clip-rule="evenodd" d="M41.641 5.74365C49.5784 5.74365 56 12.1657 56 20.1026C56 28.04 49.5784 34.4616 41.641 34.4616C33.7036 34.4616 27.282 28.0396 27.282 20.1026C27.282 12.1652 33.7041 5.74365 41.641 5.74365Z" fill="black"/>
<path fill-rule="evenodd" clip-rule="evenodd" d="M47.8052 8.61523L48.1026 8.8605L46.9636 11.487L46.6667 11.2644L47.8052 8.61523Z" fill="white"/>
<path d="M48.2861 8.746L48.8205 9.05609L47.4278 11.487L46.6667 11.03L48.043 8.61523L48.2861 8.746Z" fill="white"/>
<path fill-rule="evenodd" clip-rule="evenodd" d="M52.2433 13.6411L52.4103 13.9419L50.4403 15.077L50.2564 14.7932L52.2433 13.6411Z" fill="white"/>
<path d="M52.8181 13.1642L53.1282 13.6942L50.6969 15.0767L50.2564 14.3053L52.6711 12.9229L52.8181 13.1642Z" fill="white"/>
<path fill-rule="evenodd" clip-rule="evenodd" d="M52.4103 26.2671L52.2433 26.5643L50.2564 25.4257L50.4403 25.1284L52.4103 26.2671Z" fill="white"/>
<path d="M52.9812 26.0297L52.6711 26.564L50.2564 25.1711L50.6969 24.4102L53.1282 25.7866L52.9812 26.0297Z" fill="white"/>
<path fill-rule="evenodd" clip-rule="evenodd" d="M48.1026 31.367L47.8052 31.5896L46.6667 28.9625L46.9636 28.7178L48.1026 31.367Z" fill="white"/>
<path d="M48.5793 31.2798L48.0489 31.5896L46.6667 29.1583L47.4383 28.7178L48.8205 31.1329L48.5793 31.2798Z" fill="white"/>
<path fill-rule="evenodd" clip-rule="evenodd" d="M36.3312 28.7178L36.6154 28.9625L35.4799 31.5896L35.1795 31.367L36.3312 28.7178Z" fill="white"/>
<path d="M36.803 28.8486L37.3334 29.1583L35.9512 31.5896L35.1795 31.1329L36.5617 28.7178L36.803 28.8486Z" fill="white"/>
<path fill-rule="evenodd" clip-rule="evenodd" d="M32.8587 25.1284L33.0257 25.4257L31.0554 26.5643L30.8718 26.2671L32.8587 25.1284Z" fill="white"/>
<path d="M32.7155 24.6532L33.0257 25.1711L30.5944 26.564L30.1539 25.7866L32.5686 24.4102L32.7155 24.6532Z" fill="white"/>
<path fill-rule="evenodd" clip-rule="evenodd" d="M33.0257 14.7932L32.8587 15.077L30.8718 13.9419L31.0554 13.6411L33.0257 14.7932Z" fill="white"/>
<path d="M32.8787 14.5466L32.5686 15.0767L30.1539 13.6942L30.5944 12.9229L33.0257 14.3053L32.8787 14.5466Z" fill="white"/>
<path fill-rule="evenodd" clip-rule="evenodd" d="M36.6154 11.2644L36.3312 11.487L35.1795 8.8605L35.4799 8.61523L36.6154 11.2644Z" fill="white"/>
<path d="M37.0921 11.1769L36.5617 11.487L35.1795 9.05609L35.9512 8.61523L37.3334 11.03L37.0921 11.1769Z" fill="white"/>
<path d="M42.359 7.17969H41.6411V9.33353H42.359V7.17969Z" fill="white"/>
<path d="M41.2679 6.46143H42.359V10.0512H40.9231V6.46143H41.2679ZM41.6893 7.19159H41.5933V9.32048H41.6893V7.19159Z" fill="white"/>
<path d="M54.5641 19.3848H51.6923V20.8207H54.5641V19.3848Z" fill="white"/>
<path d="M55.2821 19.7296V20.8207H51.6923V19.3848H55.2821V19.7296ZM54.5519 20.1509V20.055H52.423V20.1509H54.5519Z" fill="white"/>
<path d="M42.359 30.1538H41.6411V32.3077H42.359V30.1538Z" fill="white"/>
<path d="M41.2679 29.436H42.359V33.0258H40.9231V29.436H41.2679ZM41.6893 30.1667H41.5933V32.2951H41.6893V30.1667Z" fill="white"/>
<path d="M31.5898 19.3848H28.718V20.8207H31.5898V19.3848Z" fill="white"/>
<path d="M32.3077 19.7296V20.8207H28.718V19.3848H32.3077V19.7296ZM31.5941 20.1509V20.055H29.4529V20.1509H31.5941Z" fill="white"/>
<path fill-rule="evenodd" clip-rule="evenodd" d="M42.0003 18.6665C42.9751 18.6665 43.7949 19.3047 43.7949 20.1022C43.7949 20.9001 42.9751 21.5383 42.0003 21.5383C41.0029 21.5383 40.2051 20.9001 40.2051 20.1022C40.2057 19.3047 41.0035 18.6665 42.0003 18.6665Z" fill="white"/>
<path fill-rule="evenodd" clip-rule="evenodd" d="M36.6154 16.5127L41.2872 20.8204L42.3589 19.506L36.6154 16.5127Z" fill="white"/>
<path fill-rule="evenodd" clip-rule="evenodd" d="M48.8205 13.6411L41.6411 19.3134L42.6278 20.8206L48.8205 13.6411Z" fill="white"/>
<path fill-rule="evenodd" clip-rule="evenodd" d="M55.9998 11.4873C57.8168 14.1354 58.8718 17.3396 58.8718 20.7742C58.8718 29.9267 51.3296 37.3335 42.0097 37.3335C32.6897 37.3335 25.1282 29.9267 25.1282 20.7742C25.1282 17.3205 26.203 14.1349 28.0201 11.4873C26.5157 13.924 25.6363 16.783 25.6363 19.8534C25.6363 28.7184 32.9632 35.9328 42.0097 35.9328C51.0368 35.9328 58.3831 28.7179 58.3831 19.8534C58.3836 16.7835 57.5041 13.9245 55.9998 11.4873Z" fill="black"/>
<path d="M84 22.2563H0V45.2307H84V22.2563Z" fill="black"/>
<path d="M5.02563 25.3497H7.32499L8.3891 36.6018H8.42729L9.54844 25.3497H12.1514L13.2726 36.6018H13.3108L14.3749 25.3497H16.4272L14.9072 39.985H11.943L10.8601 30.112H10.803L9.72007 39.985H6.56596L5.02563 25.3497ZM21.4238 25.3497H24.6538L27.1238 39.985H24.7297L24.3115 37.0799V37.1169H21.5944L21.1762 39.985H18.9721L21.4238 25.3497ZM24.0267 35.131L22.9626 27.8871H22.9244L21.8792 35.131H24.0267ZM31.3802 27.4272H28.8909V25.3497H36.2444V27.4272H33.755V39.9845H31.3797V27.4272H31.3802ZM42.9142 40.2053C41.7742 40.2053 40.9001 39.8928 40.2919 39.2679C39.7031 38.6242 39.399 37.7419 39.399 36.6018V28.7329C39.399 27.5928 39.7031 26.7105 40.2919 26.0668C40.9001 25.4418 41.7742 25.1294 42.9142 25.1294C44.0542 25.1294 44.9095 25.4418 45.5172 26.0668C46.1061 26.7105 46.4101 27.5928 46.4101 28.7329V30.2771H44.1679V28.5855C44.1679 27.6845 43.769 27.2251 42.9708 27.2251C42.1726 27.2251 41.7737 27.6845 41.7737 28.5855V36.7674C41.7737 37.6684 42.1726 38.1096 42.9708 38.1096C43.769 38.1096 44.1679 37.6684 44.1679 36.7674V34.5243H46.4101V36.6018C46.4101 37.7419 46.1061 38.6242 45.5172 39.2679C44.909 39.8928 44.0542 40.2053 42.9142 40.2053ZM50.0966 25.3497H52.4718V31.3067H55.0177V25.3497H57.393V39.985H55.0177V33.403H52.4718V39.985H50.0966V25.3497ZM61.4212 25.3497H67.9195V27.4272H63.796V31.3067H67.0642V33.403H63.796V37.9075H67.9195V39.985H61.4212V25.3497ZM74.6652 40.2053C73.5064 40.2053 72.6323 39.8746 72.0429 39.2491C71.4541 38.6054 71.15 37.7049 71.15 36.5097V35.6821H73.4111V36.6748C73.4111 37.631 73.81 38.1091 74.6464 38.1091C75.0452 38.1091 75.3493 37.9987 75.5587 37.7596C75.7675 37.5388 75.8628 37.1529 75.8628 36.6379C75.8628 36.0311 75.7298 35.4796 75.4446 35.0202C75.1593 34.5603 74.6087 33.9905 73.8293 33.3286C72.8605 32.501 72.1764 31.7474 71.777 31.0672C71.397 30.387 71.207 29.6147 71.207 28.7689C71.207 27.6106 71.5111 26.7096 72.1 26.0846C72.7082 25.4409 73.6011 25.1284 74.7411 25.1284C75.8811 25.1284 76.7553 25.4409 77.3253 26.0846C77.9141 26.7096 78.1994 27.6288 78.1994 28.8058V29.4126H75.957V28.6772C75.957 28.1626 75.8618 27.7944 75.6529 27.5741C75.4441 27.3351 75.1589 27.2247 74.76 27.2247C73.9811 27.2247 73.5818 27.684 73.5818 28.622C73.5818 29.1553 73.7336 29.6516 74.0188 30.111C74.3229 30.5709 74.8548 31.1224 75.6341 31.7844C76.6223 32.6302 77.3064 33.3838 77.6864 34.064C78.0664 34.7442 78.2564 35.5535 78.2564 36.4727C78.2564 37.668 77.9523 38.5872 77.3253 39.2304C76.7171 39.8746 75.8241 40.2053 74.6652 40.2053Z" fill="white"/>
<path d="M25.1282 43.7949H27.1666C27.8461 43.7949 28.3743 43.9922 28.7143 44.3672C29.0538 44.7618 29.2237 45.3342 29.2237 46.0641V46.9718C29.2237 47.7213 29.0538 48.2937 28.7143 48.6687C28.3748 49.0633 27.8461 49.2606 27.1666 49.2606H26.5058V52.9897H25.1282V43.7949ZM27.1661 47.9387C27.3928 47.9387 27.5623 47.8795 27.6756 47.7414C27.7889 47.6034 27.8456 47.3865 27.8456 47.0707V45.9853C27.8456 45.6695 27.7889 45.4331 27.6756 45.3146C27.5623 45.1765 27.3923 45.1173 27.1661 45.1173H26.5054V47.9387H27.1661ZM29.9781 43.7949H32.0353C32.7335 43.7949 33.2622 43.9726 33.5829 44.308C33.9224 44.6629 34.0737 45.1961 34.0737 45.906V46.4783C34.0737 47.4251 33.7716 48.0371 33.168 48.2937V48.3132C33.5075 48.4317 33.7529 48.629 33.885 48.9644C34.017 49.2802 34.0924 49.7139 34.0924 50.2667V51.8847C34.0924 52.1413 34.0924 52.3581 34.1111 52.5163C34.1299 52.6739 34.1678 52.8321 34.2432 52.9897H32.8276C32.7896 52.8516 32.7522 52.7136 32.7335 52.5755C32.7147 52.4375 32.7147 52.2005 32.7147 51.8651V50.1878C32.7147 49.7737 32.6394 49.4775 32.5073 49.2997C32.3752 49.1421 32.1678 49.0628 31.8466 49.0628H31.3558V52.9892H29.9781V43.7949ZM31.8658 47.7414C32.1486 47.7414 32.3565 47.6626 32.4886 47.5245C32.6206 47.3669 32.696 47.1104 32.696 46.7745V46.0641C32.696 45.7288 32.6393 45.4918 32.526 45.3342C32.4127 45.1765 32.2427 45.1173 31.9978 45.1173H31.3563V47.7414H31.8658ZM35.0552 43.7949H38.8295V45.1168H36.4329V47.5436H38.3392V48.8655H36.4329V51.6869H38.8295V52.9892H35.0552V43.7949ZM39.6223 43.7949H41.5849L42.4718 50.3851H42.4905L43.3774 43.7949H45.34V52.9897H44.0377V46.025H44.019L43 52.9902H41.849L40.8487 46.025H40.8108V52.9902H39.6218V43.7949H39.6223ZM46.3786 43.7949H47.7563V52.9897H46.3786V43.7949ZM50.8137 53.1283C50.1342 53.1283 49.6247 52.931 49.266 52.5364C48.9265 52.1418 48.7378 51.5694 48.7378 50.8199V43.7954H50.1342V50.9183C50.1342 51.2341 50.1909 51.4705 50.3042 51.6086C50.4363 51.7467 50.6063 51.8255 50.8324 51.8255C51.0591 51.8255 51.2286 51.7467 51.3606 51.6086C51.474 51.4705 51.5306 51.2336 51.5306 50.9183V43.7954H52.8704V50.8199C52.8704 51.5699 52.7004 52.1418 52.3421 52.5364C51.9839 52.931 51.4744 53.1283 50.8137 53.1283ZM53.8524 43.7949H55.8154L56.7023 50.3851H56.721L57.608 43.7949H59.5897V52.9897H58.2682V46.025H58.2495L57.2492 52.9902H56.079L55.0788 46.025H55.06V52.9902H53.8524V43.7949Z" fill="white"/>
</svg>
