<svg width="24" height="24" viewBox="0 0 24 24" fill="none" xmlns="http://www.w3.org/2000/svg">
<path fill-rule="evenodd" clip-rule="evenodd" d="M7 4L6.93417 4C6.04769 3.99995 5.28387 3.99991 4.67221 4.08215C4.0167 4.17028 3.38835 4.36902 2.87868 4.87868C2.36902 5.38835 2.17028 6.0167 2.08215 6.67221C1.99991 7.28387 1.99995 8.04769 2 8.93418L2 9.00001V14.3333L2 14.3992C1.99995 15.2856 1.99991 16.0495 2.08215 16.6611C2.17028 17.3166 2.36902 17.945 2.87868 18.4546C3.38835 18.9643 4.0167 19.1631 4.67221 19.2512C5.28387 19.3334 6.04769 19.3334 6.93417 19.3333L7 19.3333H16.7778L16.8436 19.3333C17.7301 19.3334 18.4939 19.3334 19.1056 19.2512C19.7611 19.1631 20.3894 18.9643 20.8991 18.4546C21.4088 17.945 21.6075 17.3166 21.6956 16.6611C21.7779 16.0495 21.7778 15.2856 21.7778 14.3991L21.7778 14.3333V9L21.7778 8.9342C21.7778 8.0477 21.7779 7.28388 21.6956 6.67221C21.6075 6.0167 21.4088 5.38835 20.8991 4.87868C20.3894 4.36902 19.7611 4.17028 19.1056 4.08215C18.4939 3.99991 17.7301 3.99995 16.8436 4L16.7778 4H7ZM4.2929 6.2929C4.36902 6.21677 4.50497 6.12263 4.93871 6.06431C5.40121 6.00213 6.02893 6 7 6H16.7778C17.7489 6 18.3766 6.00213 18.8391 6.06431C19.2728 6.12263 19.4088 6.21677 19.4849 6.2929C19.561 6.36902 19.6552 6.50497 19.7135 6.93871C19.7427 7.15648 19.7587 7.41087 19.7674 7.72049L12.3361 11.4361C12.0546 11.5769 11.7232 11.5769 11.4417 11.4361L4.01037 7.72049C4.01907 7.41087 4.03503 7.15648 4.06431 6.93871C4.12263 6.50497 4.21677 6.36902 4.2929 6.2929ZM4 9.95137V14.3333C4 15.3044 4.00213 15.9321 4.06431 16.3946C4.12263 16.8284 4.21677 16.9643 4.2929 17.0404C4.36902 17.1166 4.50497 17.2107 4.93871 17.269C5.40122 17.3312 6.02893 17.3333 7 17.3333H16.7778C17.7489 17.3333 18.3766 17.3312 18.8391 17.269C19.2728 17.2107 19.4088 17.1166 19.4849 17.0404C19.561 16.9643 19.6552 16.8284 19.7135 16.3946C19.7757 15.9321 19.7778 15.3044 19.7778 14.3333V9.95137L13.2305 13.225C12.3859 13.6473 11.3918 13.6473 10.5472 13.225L4 9.95137Z" fill="#858080" fill-opacity="0.6"/>
</svg>
