<svg width="26" height="26" viewBox="0 0 26 26" fill="none" xmlns="http://www.w3.org/2000/svg">
<g clip-path="url(#clip0_0_2300)">
<path fill-rule="evenodd" clip-rule="evenodd" d="M25.48 13.2953C25.48 12.3735 25.3973 11.4871 25.2436 10.6362H13V15.6649H19.9964C19.695 17.2899 18.7791 18.6667 17.4023 19.5885V22.8503H21.6036C24.0618 20.5871 25.48 17.2544 25.48 13.2953Z" fill="#4285F4"/>
<path fill-rule="evenodd" clip-rule="evenodd" d="M13 26.0002C16.51 26.0002 19.4527 24.8361 21.6036 22.8507L17.4022 19.5889C16.2381 20.3689 14.7491 20.8298 13 20.8298C9.61405 20.8298 6.74814 18.5429 5.72587 15.4702H1.38269V18.8384C3.52178 23.087 7.91815 26.0002 13 26.0002Z" fill="#34A853"/>
<path fill-rule="evenodd" clip-rule="evenodd" d="M5.72591 15.4698C5.46591 14.6898 5.31818 13.8566 5.31818 12.9998C5.31818 12.143 5.46591 11.3098 5.72591 10.5298V7.16162H1.38273C0.502273 8.91662 0 10.9021 0 12.9998C0 15.0975 0.502273 17.083 1.38273 18.838L5.72591 15.4698Z" fill="#FBBC05"/>
<path fill-rule="evenodd" clip-rule="evenodd" d="M13 5.17045C14.9086 5.17045 16.6222 5.82636 17.9695 7.11455L21.6981 3.38591C19.4468 1.28818 16.5041 0 13 0C7.91815 0 3.52178 2.91318 1.38269 7.16182L5.72587 10.53C6.74814 7.45727 9.61405 5.17045 13 5.17045Z" fill="#EA4335"/>
</g>
<defs>
<clipPath id="clip0_0_2300">
<rect width="26" height="26" fill="white"/>
</clipPath>
</defs>
</svg>
