<svg width="24" height="24" viewBox="0 0 24 24" fill="none" xmlns="http://www.w3.org/2000/svg">
<path d="M14.25 22.4C13.8667 22.7833 13.3917 22.975 12.825 22.975C12.2583 22.975 11.7833 22.7833 11.4 22.4L2.6 13.6C2.41667 13.4167 2.271 13.2 2.163 12.95C2.05433 12.7 2 12.4333 2 12.15V5C2 4.45 2.196 3.979 2.588 3.587C2.97933 3.19567 3.45 3 4 3H11.15C11.4333 3 11.7 3.054 11.95 3.162C12.2 3.27067 12.4167 3.41667 12.6 3.6L21.4 12.425C21.7833 12.8083 21.975 13.279 21.975 13.837C21.975 14.3957 21.7833 14.8667 21.4 15.25L14.25 22.4ZM12.825 21L19.975 13.85L11.15 5H4V12.15L12.825 21ZM6.5 9C6.91667 9 7.27067 8.854 7.562 8.562C7.854 8.27067 8 7.91667 8 7.5C8 7.08333 7.854 6.72933 7.562 6.438C7.27067 6.146 6.91667 6 6.5 6C6.08333 6 5.72933 6.146 5.438 6.438C5.146 6.72933 5 7.08333 5 7.5C5 7.91667 5.146 8.27067 5.438 8.562C5.72933 8.854 6.08333 9 6.5 9Z" fill="black"/>
</svg>
